<svg xmlns="http://www.w3.org/2000/svg" xmlns:xlink="http://www.w3.org/1999/xlink" width="160.999" height="160.999" viewBox="0 0 160.999 160.999">
  <defs>
    <linearGradient id="linear-gradient" x1="0.5" x2="0.5" y2="1" gradientUnits="objectBoundingBox">
      <stop offset="0" stop-color="#33dce1"/>
      <stop offset="1" stop-color="#6bbff8"/>
    </linearGradient>
    <clipPath id="clip-path">
      <rect id="Rectangle_461211" data-name="Rectangle 461211" width="31.118" height="31.118" fill="#33dce1"/>
    </clipPath>
    <clipPath id="clip-path-2">
      <path id="Path_1036211" data-name="Path 1036211" d="M151.957,25.824v9.544H161.5V47.4h-9.544v9.544h-12.03V47.4h-9.544V35.368h9.544V25.824Z" transform="translate(-130.383 -25.824)" fill="#33dce1"/>
    </clipPath>
    <filter id="Path_1036208" x="0" y="0" width="160.999" height="160.999" filterUnits="userSpaceOnUse">
      <feOffset dx="5" dy="3" input="SourceAlpha"/>
      <feGaussianBlur stdDeviation="5.5" result="blur"/>
      <feFlood flood-color="#33dce1" flood-opacity="0.478"/>
      <feComposite operator="in" in2="blur"/>
      <feComposite in="SourceGraphic"/>
    </filter>
    <clipPath id="clip-path-3">
      <path id="Path_1036209" data-name="Path 1036209" d="M452.434,487.182a45.145,45.145,0,1,0,41.762-27.9,45.184,45.184,0,0,0-41.762,27.9" transform="translate(-448.982 -459.277)" fill="url(#linear-gradient)"/>
    </clipPath>
    <clipPath id="clip-path-4">
      <rect id="Rectangle_461211-2" data-name="Rectangle 461211" width="16.753" height="16.753" fill="#33dce1"/>
    </clipPath>
    <clipPath id="clip-path-5">
      <path id="Path_1036211-2" data-name="Path 1036211" d="M142,25.824v5.138h5.138v6.477H142v5.138h-6.477V37.439h-5.138V30.962h5.138V25.824Z" transform="translate(-130.383 -25.824)" fill="#33dce1"/>
    </clipPath>
    <clipPath id="clip-path-6">
      <rect id="Rectangle_474146" data-name="Rectangle 474146" width="58.478" height="66.033" fill="#fff"/>
    </clipPath>
  </defs>
  <g id="img11" transform="translate(-1246.169 -5372.5)">
    <g id="Group_1191498" data-name="Group 1191498" transform="translate(1257.668 5386)" opacity="0.25">
      <g id="Group_1191497" data-name="Group 1191497" transform="translate(0 0)">
        <g id="Group_1191496" data-name="Group 1191496" clip-path="url(#clip-path)">
          <g id="Group_1191495" data-name="Group 1191495">
            <g id="Group_1191494" data-name="Group 1191494" clip-path="url(#clip-path-2)">
              <rect id="Rectangle_461210" data-name="Rectangle 461210" width="31.118" height="31.118" transform="translate(0 0)" fill="#33dce1"/>
            </g>
          </g>
        </g>
      </g>
    </g>
    <g id="Group_1191602" data-name="Group 1191602" transform="translate(1257.669 5386)">
      <g transform="matrix(1, 0, 0, 1, -11.5, -13.5)" filter="url(#Path_1036208)">
        <path id="Path_1036208-2" data-name="Path 1036208" d="M551.408,497.716a64,64,0,1,1-64-64,64,64,0,0,1,64,64" transform="translate(-411.91 -420.22)" fill="#fff"/>
      </g>
      <g id="Group_1191483" data-name="Group 1191483" transform="translate(18.088 18.078)" clip-path="url(#clip-path-3)">
        <rect id="Rectangle_461207" data-name="Rectangle 461207" width="102.588" height="96.491" transform="translate(-6.098 -0.001)" fill="url(#linear-gradient)"/>
      </g>
    </g>
    <g id="Group_1191603" data-name="Group 1191603" transform="translate(1257.668 5421.986)" opacity="0.5">
      <g id="Group_1191497-2" data-name="Group 1191497" transform="translate(0 0)">
        <g id="Group_1191496-2" data-name="Group 1191496" clip-path="url(#clip-path-4)">
          <g id="Group_1191495-2" data-name="Group 1191495">
            <g id="Group_1191494-2" data-name="Group 1191494" clip-path="url(#clip-path-5)">
              <rect id="Rectangle_461210-2" data-name="Rectangle 461210" width="16.753" height="16.753" transform="translate(0 0)" fill="#33dce1"/>
            </g>
          </g>
        </g>
      </g>
    </g>
    <g id="Group_1196668" data-name="Group 1196668" transform="translate(1292.43 5416.983)">
      <g id="Group_1196667" data-name="Group 1196667" clip-path="url(#clip-path-6)">
        <path id="Path_1037788" data-name="Path 1037788" d="M8.218,151.466c-.494,0-.681-.79-.918-.926l-4.08-2.418a5.912,5.912,0,0,1-2.765-4.8l-.421-5.063c-.231-2.779,2.07-4.736,4.78-5.015l1.556-.16.049-15.089A2.982,2.982,0,0,1,9.5,115.217a3.037,3.037,0,0,1,3.095,2.99l.068,11.951a3.287,3.287,0,0,1,3.428-2.12,3.41,3.41,0,0,1,2.874,2.948,2.922,2.922,0,0,1,3.289-1.366,3.009,3.009,0,0,1,2.184,3.1,2.977,2.977,0,0,1,3.277-.775A2.868,2.868,0,0,1,29.47,134.6l-.03,13.595a6.61,6.61,0,0,1-1.067,3.289Z" transform="translate(-0.014 -90.359)" fill="#fff"/>
        <rect id="Rectangle_474145" data-name="Rectangle 474145" width="19.984" height="2.757" transform="translate(8.189 63.275)" fill="#fff"/>
        <path id="Path_1037789" data-name="Path 1037789" d="M217.491,213.281a3.074,3.074,0,1,1-3.074-3.074,3.074,3.074,0,0,1,3.074,3.074" transform="translate(-165.747 -164.856)" fill="#fff"/>
        <path id="Path_1037790" data-name="Path 1037790" d="M136.785,23.82a3.07,3.07,0,1,1-3.07-3.07,3.07,3.07,0,0,1,3.07,3.07" transform="translate(-102.46 -16.273)" fill="#fff"/>
        <path id="Path_1037791" data-name="Path 1037791" d="M39.267,47.943,18.715,27.373a9.747,9.747,0,0,1-3.926,6.286l-.041-5.81A5.21,5.21,0,0,0,9.68,22.7a5.144,5.144,0,0,0-5.45,4.912l-.05,6.125a9.393,9.393,0,1,1,14.515-9.3l6.358-7.014a9.82,9.82,0,1,1,14.758-2.9,9.743,9.743,0,0,1-12.871,4.048l-5.593,6.234,17.573.071A9.873,9.873,0,1,1,38.934,27l-17.458.053L40.154,45.787a9.887,9.887,0,1,1-.887,2.156M36.976,14.85a7.635,7.635,0,0,0-10.97-10.6,7.583,7.583,0,0,0-.491,10.539,6.183,6.183,0,0,1,5.773-3.932,6.1,6.1,0,0,1,5.687,3.993M54.417,30.941a7.614,7.614,0,1,0-11.455.008,6.076,6.076,0,0,1,5.8-3.933,6.241,6.241,0,0,1,5.658,3.925M54.41,55.7a7.629,7.629,0,1,0-11.461-.014A6.13,6.13,0,0,1,54.41,55.7" transform="translate(0 0)" fill="#fff"/>
        <path id="Path_1037792" data-name="Path 1037792" d="M217.506,98.691a3.074,3.074,0,1,1-3.074-3.074,3.074,3.074,0,0,1,3.074,3.074" transform="translate(-165.759 -74.988)" fill="#fff"/>
      </g>
    </g>
  </g>
</svg>
