<svg xmlns="http://www.w3.org/2000/svg" xmlns:xlink="http://www.w3.org/1999/xlink" width="84" height="84" viewBox="0 0 84 84">
  <defs>
    <clipPath id="clip-path">
      <rect id="Rectangle_474195" data-name="Rectangle 474195" width="55.37" height="56.152" fill="#12263f"/>
    </clipPath>
  </defs>
  <g id="img19" transform="translate(-705.629 -410)">
    <g id="Group_1188476" data-name="Group 1188476" transform="translate(2.841 -1273.207)">
      <g id="Group_1185067" data-name="Group 1185067" transform="translate(719.227 1696)">
        <path id="Path_997620" data-name="Path 997620" d="M133.124,646.71a15.477,15.477,0,1,0-14.332-.01" transform="translate(-99.168 -604.804)" fill="#2b4c63" stroke="#000" stroke-miterlimit="10" stroke-width="2"/>
        <rect id="Rectangle_454823" data-name="Rectangle 454823" width="14.333" height="4.288" transform="translate(19.625 41.893)" fill="#2b4c63" stroke="#000" stroke-miterlimit="10" stroke-width="2"/>
        <rect id="Rectangle_454824" data-name="Rectangle 454824" width="14.333" height="4.288" transform="translate(19.625 46.181)" fill="#2b4c63" stroke="#000" stroke-miterlimit="10" stroke-width="2"/>
        <path id="Path_997621" data-name="Path 997621" d="M135.492,688.628h-6.283a4.025,4.025,0,0,1-4.025-4.025v-.263h14.333v.263A4.025,4.025,0,0,1,135.492,688.628Z" transform="translate(-105.559 -633.871)" fill="#2b4c63" stroke="#000" stroke-miterlimit="10" stroke-width="2"/>
        <line id="Line_3231" data-name="Line 3231" y1="7.578" transform="translate(26.797)" fill="none" stroke="#000" stroke-miterlimit="10" stroke-width="2"/>
        <line id="Line_3232" data-name="Line 3232" x1="4.454" y1="6.13" transform="translate(10.236 5.387)" fill="none" stroke="#000" stroke-miterlimit="10" stroke-width="2"/>
        <line id="Line_3233" data-name="Line 3233" x1="7.2" y1="2.336" transform="translate(0 19.477)" fill="none" stroke="#000" stroke-miterlimit="10" stroke-width="2"/>
        <line id="Line_3234" data-name="Line 3234" x1="7.2" y2="2.341" transform="translate(0 34.55)" fill="none" stroke="#000" stroke-miterlimit="10" stroke-width="2"/>
        <line id="Line_3235" data-name="Line 3235" x1="7.2" y1="2.341" transform="translate(46.398 34.55)" fill="none" stroke="#000" stroke-miterlimit="10" stroke-width="2"/>
        <line id="Line_3236" data-name="Line 3236" x1="7.2" y2="2.336" transform="translate(46.398 19.477)" fill="none" stroke="#000" stroke-miterlimit="10" stroke-width="2"/>
        <line id="Line_3237" data-name="Line 3237" x1="4.454" y2="6.125" transform="translate(38.91 5.387)" fill="none" stroke="#000" stroke-miterlimit="10" stroke-width="2"/>
        <path id="Path_997622" data-name="Path 997622" d="M119,638.208a10.647,10.647,0,0,1,4.484-8.693" transform="translate(-102.867 -610.025)" fill="#2b4c63" stroke="#000" stroke-miterlimit="10" stroke-width="2"/>
        <line id="Line_3238" data-name="Line 3238" y2="8.634" transform="translate(26.797 33.258)" fill="none" stroke="#000" stroke-miterlimit="10" stroke-width="2"/>
        <path id="Path_997623" data-name="Path 997623" d="M133.157,647.74l2.669,3.47,3-3.47" transform="translate(-109.027 -617.951)" fill="#2b4c63" stroke="#000" stroke-miterlimit="10" stroke-width="2"/>
        <path id="Path_997624" data-name="Path 997624" d="M132.431,691.931a3.07,3.07,0,1,0,6.14,0" transform="translate(-108.711 -637.173)" fill="#2b4c63" stroke="#000" stroke-miterlimit="10" stroke-width="2"/>
      </g>
      <rect id="Rectangle_459857" data-name="Rectangle 459857" width="81" height="79" transform="translate(705.788 1688.207)" fill="#2b4c63"/>
    </g>
    <g id="Group_1188599" data-name="Group 1188599" transform="translate(0.371 -1278)">
      <g id="Group_1185067-2" data-name="Group 1185067" transform="translate(718.472 1696)">
        <path id="Path_997620-2" data-name="Path 997620" d="M133.124,646.71a15.477,15.477,0,1,0-14.332-.01" transform="translate(-99.168 -604.804)" fill="#6bbff8" stroke="#000" stroke-miterlimit="10" stroke-width="2"/>
        <rect id="Rectangle_454823-2" data-name="Rectangle 454823" width="14.333" height="4.288" transform="translate(19.625 41.893)" fill="#6bbff8" stroke="#000" stroke-miterlimit="10" stroke-width="2"/>
        <rect id="Rectangle_454824-2" data-name="Rectangle 454824" width="14.333" height="4.288" transform="translate(19.625 46.181)" fill="#6bbff8" stroke="#000" stroke-miterlimit="10" stroke-width="2"/>
        <path id="Path_997621-2" data-name="Path 997621" d="M135.492,688.628h-6.283a4.025,4.025,0,0,1-4.025-4.025v-.263h14.333v.263A4.025,4.025,0,0,1,135.492,688.628Z" transform="translate(-105.559 -633.871)" fill="#6bbff8" stroke="#000" stroke-miterlimit="10" stroke-width="2"/>
        <line id="Line_3231-2" data-name="Line 3231" y1="7.578" transform="translate(26.797)" fill="none" stroke="#000" stroke-miterlimit="10" stroke-width="2"/>
        <line id="Line_3232-2" data-name="Line 3232" x1="4.454" y1="6.13" transform="translate(10.236 5.387)" fill="none" stroke="#000" stroke-miterlimit="10" stroke-width="2"/>
        <line id="Line_3233-2" data-name="Line 3233" x1="7.2" y1="2.336" transform="translate(0 19.477)" fill="none" stroke="#000" stroke-miterlimit="10" stroke-width="2"/>
        <line id="Line_3234-2" data-name="Line 3234" x1="7.2" y2="2.341" transform="translate(0 34.55)" fill="none" stroke="#000" stroke-miterlimit="10" stroke-width="2"/>
        <line id="Line_3235-2" data-name="Line 3235" x1="7.2" y1="2.341" transform="translate(46.398 34.55)" fill="none" stroke="#000" stroke-miterlimit="10" stroke-width="2"/>
        <line id="Line_3236-2" data-name="Line 3236" x1="7.2" y2="2.336" transform="translate(46.398 19.477)" fill="none" stroke="#000" stroke-miterlimit="10" stroke-width="2"/>
        <line id="Line_3237-2" data-name="Line 3237" x1="4.454" y2="6.125" transform="translate(38.91 5.387)" fill="none" stroke="#000" stroke-miterlimit="10" stroke-width="2"/>
        <path id="Path_997622-2" data-name="Path 997622" d="M119,638.208a10.647,10.647,0,0,1,4.484-8.693" transform="translate(-102.867 -610.025)" fill="#6bbff8" stroke="#000" stroke-miterlimit="10" stroke-width="2"/>
        <line id="Line_3238-2" data-name="Line 3238" y2="8.634" transform="translate(26.797 33.258)" fill="none" stroke="#000" stroke-miterlimit="10" stroke-width="2"/>
        <path id="Path_997623-2" data-name="Path 997623" d="M133.157,647.74l2.669,3.47,3-3.47" transform="translate(-109.027 -617.951)" fill="#6bbff8" stroke="#000" stroke-miterlimit="10" stroke-width="2"/>
        <path id="Path_997624-2" data-name="Path 997624" d="M132.431,691.931a3.07,3.07,0,1,0,6.14,0" transform="translate(-108.711 -637.173)" fill="#6bbff8" stroke="#000" stroke-miterlimit="10" stroke-width="2"/>
      </g>
      <rect id="Rectangle_459857-2" data-name="Rectangle 459857" width="80" height="80" transform="translate(705.258 1688)" fill="#6bbff8"/>
    </g>
    <g id="Group_1196715" data-name="Group 1196715" transform="translate(717.944 421.924)">
      <g id="Group_1196714" data-name="Group 1196714" clip-path="url(#clip-path)">
        <path id="Path_1037923" data-name="Path 1037923" d="M30.737,51.6a2.114,2.114,0,0,1-2.163.583,1.882,1.882,0,0,1-1.253-1.819l-.014-7.217,13.161-30.5-.034-8.6a2.5,2.5,0,0,0-2.62-2.336L4.523,1.7a2.617,2.617,0,0,0-2.84,2.714l.024,47.659a2.532,2.532,0,0,0,2.63,2.37l33.478,0a2.516,2.516,0,0,0,2.622-2.343l.037-12.085a.877.877,0,0,1,.628-.927c.365-.1,1.069.078,1.067.622l-.046,12.552a4.129,4.129,0,0,1-4.3,3.883l-33.5,0A4.208,4.208,0,0,1,0,52.09V4.064A4.2,4.2,0,0,1,4.33,0L37.82,0a4.145,4.145,0,0,1,4.33,3.874l.106,4.618L44.03,4.44a1.623,1.623,0,0,1,1.72-.883l.731-1.583a3.37,3.37,0,0,1,6.127,2.808l-.615,1.426a1.028,1.028,0,0,1,.9,1.2l1.934.887c.3.136.684.562.5.995L48.544,25.074c-.185.431-.792.455-1.1.339a.844.844,0,0,1-.417-1.147L53.32,9.649a1.876,1.876,0,0,0-1.18-.559L35.822,46.878c-1.288,1.017-2.241,2.093-3.4,3.165ZM50.459,5.486l.624-1.524a1.638,1.638,0,0,0-.729-2.022,1.586,1.586,0,0,0-2.1.4A6.521,6.521,0,0,0,47.445,4.2ZM45.5,5.2,38.611,21.169l5.48,2.365L50.979,7.569Zm-7.537,17.46L29.256,42.826l5.476,2.365L43.438,25.03Zm-4.351,23.9-4.566-2,.075,6.087Z" transform="translate(0 0)" fill="#12263f"/>
        <path id="Path_1037924" data-name="Path 1037924" d="M79.627,28.743H62.452l-.007,2.5,9.46.008a.893.893,0,0,1,.953.78.817.817,0,0,1-.773.944l-9.989,0A1.52,1.52,0,0,1,60.7,31.433V28.592a1.508,1.508,0,0,1,1.405-1.544l17.7-.013a1.542,1.542,0,0,1,1.58,1.566L81.4,31.26a1.573,1.573,0,0,1-1.413,1.7l-4.178-.01c-.482,0-.616-.588-.6-.915a.829.829,0,0,1,.929-.782l3.5-.012Z" transform="translate(-50.051 -22.291)" fill="#12263f"/>
        <path id="Path_1037925" data-name="Path 1037925" d="M66.555,82.7,39.9,82.7a.877.877,0,1,1,.147-1.746l26.627.007a.858.858,0,0,1,.826.819.879.879,0,0,1-.941.922" transform="translate(-32.195 -66.75)" fill="#12263f"/>
        <path id="Path_1037926" data-name="Path 1037926" d="M66.908,113.5l-27.037,0a.8.8,0,0,1-.816-.725c-.057-.288.09-.916.635-.916l27.155,0a.709.709,0,0,1,.648.681.843.843,0,0,1-.585.968" transform="translate(-32.193 -92.229)" fill="#12263f"/>
        <path id="Path_1037927" data-name="Path 1037927" d="M60.372,144.029l-20.333,0a.939.939,0,0,1-.966-.7c-.1-.326.133-1.007.674-1.007l20.946-.007c.476,0,.713.6.679.891a.923.923,0,0,1-1,.818" transform="translate(-32.2 -117.346)" fill="#12263f"/>
        <path id="Path_1037928" data-name="Path 1037928" d="M48.587,253.615c1.389.587-.613,3.286-2.666,3.741a5.326,5.326,0,0,1-4.681-1.563,3.049,3.049,0,0,0-2.812-.8c-2.188.494-1.811,2.893-3.226,2.363-1.292-.484.3-3.479,2.8-4.02a4.778,4.778,0,0,1,4.45,1.234,3.443,3.443,0,0,0,3.3,1.053c1.5-.455,1.644-2.518,2.842-2.011" transform="translate(-28.647 -208.782)" fill="#12263f"/>
        <path id="Path_1037929" data-name="Path 1037929" d="M50.722,174.57l-10.679.05a.915.915,0,0,1-.989-.776.874.874,0,0,1,.8-.944l10.692,0a.857.857,0,0,1,.862.678c.077.3-.116.992-.685.994" transform="translate(-32.198 -142.559)" fill="#12263f"/>
      </g>
    </g>
  </g>
</svg>
