<svg xmlns="http://www.w3.org/2000/svg" xmlns:xlink="http://www.w3.org/1999/xlink" width="184.999" height="184.999" viewBox="0 0 184.999 184.999">
  <defs>
    <linearGradient id="linear-gradient" x1="0.5" x2="0.5" y2="1" gradientUnits="objectBoundingBox">
      <stop offset="0" stop-color="#33dce1"/>
      <stop offset="1" stop-color="#6bbff8"/>
    </linearGradient>
    <clipPath id="clip-path">
      <rect id="Rectangle_461211" data-name="Rectangle 461211" width="36.962" height="36.962" fill="#33dce1"/>
    </clipPath>
    <clipPath id="clip-path-2">
      <path id="Path_1036211" data-name="Path 1036211" d="M156.009,25.824V37.16h11.336V51.45H156.009V62.786h-14.29V51.45H130.383V37.16h11.336V25.824Z" transform="translate(-130.383 -25.824)" fill="#33dce1"/>
    </clipPath>
    <filter id="Path_1036208" x="0" y="0" width="184.999" height="184.999" filterUnits="userSpaceOnUse">
      <feOffset dx="5" dy="3" input="SourceAlpha"/>
      <feGaussianBlur stdDeviation="5.5" result="blur"/>
      <feFlood flood-color="#33dce1" flood-opacity="0.478"/>
      <feComposite operator="in" in2="blur"/>
      <feComposite in="SourceGraphic"/>
    </filter>
    <clipPath id="clip-path-3">
      <path id="Path_1036209" data-name="Path 1036209" d="M453.082,492.423a53.623,53.623,0,1,0,49.605-33.146,53.67,53.67,0,0,0-49.605,33.146" transform="translate(-448.982 -459.277)" fill="url(#linear-gradient)"/>
    </clipPath>
    <clipPath id="clip-path-4">
      <rect id="Rectangle_461211-2" data-name="Rectangle 461211" width="19.899" height="19.9" fill="#33dce1"/>
    </clipPath>
    <clipPath id="clip-path-5">
      <path id="Path_1036211-2" data-name="Path 1036211" d="M144.179,25.824v6.1h6.1v7.694h-6.1v6.1h-7.693v-6.1h-6.1V31.927h6.1v-6.1Z" transform="translate(-130.383 -25.824)" fill="#33dce1"/>
    </clipPath>
    <clipPath id="clip-path-6">
      <rect id="Rectangle_474107" data-name="Rectangle 474107" width="59.26" height="59.27" fill="#fff"/>
    </clipPath>
  </defs>
  <g id="img4" transform="translate(-1246.169 -5372.5)">
    <g id="Group_1191498" data-name="Group 1191498" transform="translate(1257.668 5386)" opacity="0.25">
      <g id="Group_1191497" data-name="Group 1191497" transform="translate(0 0)">
        <g id="Group_1191496" data-name="Group 1191496" clip-path="url(#clip-path)">
          <g id="Group_1191495" data-name="Group 1191495">
            <g id="Group_1191494" data-name="Group 1191494" clip-path="url(#clip-path-2)">
              <rect id="Rectangle_461210" data-name="Rectangle 461210" width="36.962" height="36.962" transform="translate(0 0)" fill="#33dce1"/>
            </g>
          </g>
        </g>
      </g>
    </g>
    <g id="Group_1191602" data-name="Group 1191602" transform="translate(1257.669 5386)">
      <g transform="matrix(1, 0, 0, 1, -11.5, -13.5)" filter="url(#Path_1036208)">
        <path id="Path_1036208-2" data-name="Path 1036208" d="M575.408,509.716a76,76,0,1,1-76-76,76,76,0,0,1,76,76" transform="translate(-411.91 -420.22)" fill="#fff"/>
      </g>
      <g id="Group_1191483" data-name="Group 1191483" transform="translate(21.485 21.473)" clip-path="url(#clip-path-3)">
        <rect id="Rectangle_461207" data-name="Rectangle 461207" width="121.855" height="114.612" transform="translate(-7.244 -0.001)" fill="url(#linear-gradient)"/>
      </g>
    </g>
    <g id="Group_1191603" data-name="Group 1191603" transform="translate(1257.668 5428.731)" opacity="0.5">
      <g id="Group_1191497-2" data-name="Group 1191497" transform="translate(0 0)">
        <g id="Group_1191496-2" data-name="Group 1191496" clip-path="url(#clip-path-4)">
          <g id="Group_1191495-2" data-name="Group 1191495">
            <g id="Group_1191494-2" data-name="Group 1191494" clip-path="url(#clip-path-5)">
              <rect id="Rectangle_461210-2" data-name="Rectangle 461210" width="19.899" height="19.9" transform="translate(0 0)" fill="#33dce1"/>
            </g>
          </g>
        </g>
      </g>
    </g>
    <g id="Group_1196612" data-name="Group 1196612" transform="translate(1304.039 5432.365)">
      <g id="Group_1196611" data-name="Group 1196611" clip-path="url(#clip-path-6)">
        <path id="Path_1037658" data-name="Path 1037658" d="M80.69,54.582l-.05-5.71H56.057l.067-44A5.1,5.1,0,0,1,61.422,0H92.758a8.874,8.874,0,0,0-1.7,5.032l-.007,48.842a5.2,5.2,0,0,1-4.76,5.373,5.143,5.143,0,0,1-5.605-4.666M82.348,8.809h-17.6v3.446h17.6Zm0,6.935h-17.6v3.489h17.6Zm0,6.957h-17.6v3.446h17.6Zm0,6.935h-17.6v3.489h17.6Zm0,6.957h-17.6v3.446h17.6Z" transform="translate(-45.673)" fill="#fff"/>
        <path id="Path_1037659" data-name="Path 1037659" d="M33.173,289.385,5.2,289.378A5.109,5.109,0,0,1,0,284.22l.022-1.789,31.519,0a9.9,9.9,0,0,0,1.631,6.952" transform="translate(0 -230.115)" fill="#fff"/>
        <path id="Path_1037660" data-name="Path 1037660" d="M274.3,6.984h-10.37l.025-2.521a5.2,5.2,0,0,1,10.294.041Z" transform="translate(-215.043 -0.026)" fill="#fff"/>
      </g>
    </g>
  </g>
</svg>
