<svg xmlns="http://www.w3.org/2000/svg" xmlns:xlink="http://www.w3.org/1999/xlink" width="131" height="131" viewBox="0 0 131 131">
  <defs>
    <linearGradient id="linear-gradient" x1="0.5" x2="0.5" y2="1" gradientUnits="objectBoundingBox">
      <stop offset="0" stop-color="#33dce1"/>
      <stop offset="1" stop-color="#14585a"/>
    </linearGradient>
    <clipPath id="clip-path">
      <rect id="Rectangle_461211" data-name="Rectangle 461211" width="23.624" height="23.625" fill="#fff"/>
    </clipPath>
    <clipPath id="clip-path-2">
      <path id="Path_1036211" data-name="Path 1036211" d="M146.762,25.824v7.246h7.246V42.2h-7.246v7.246h-9.133V42.2h-7.246V33.069h7.246V25.824Z" transform="translate(-130.383 -25.824)" fill="#fff"/>
    </clipPath>
    <filter id="Path_1036208" x="0" y="0" width="131" height="131" filterUnits="userSpaceOnUse">
      <feOffset dx="5" dy="3" input="SourceAlpha"/>
      <feGaussianBlur stdDeviation="5.5" result="blur"/>
      <feFlood flood-color="#0d7275" flood-opacity="0.388"/>
      <feComposite operator="in" in2="blur"/>
      <feComposite in="SourceGraphic"/>
    </filter>
    <clipPath id="clip-path-3">
      <path id="Path_1036209" data-name="Path 1036209" d="M451.6,480.462a34.273,34.273,0,1,0,31.705-21.185A34.3,34.3,0,0,0,451.6,480.462" transform="translate(-448.982 -459.277)" fill="url(#linear-gradient)"/>
    </clipPath>
    <clipPath id="clip-path-4">
      <rect id="Rectangle_461211-2" data-name="Rectangle 461211" width="12.719" height="12.719" fill="#33dce1"/>
    </clipPath>
    <clipPath id="clip-path-5">
      <path id="Path_1036211-2" data-name="Path 1036211" d="M139.2,25.824v3.9h3.9v4.917h-3.9v3.9h-4.917v-3.9h-3.9V29.725h3.9v-3.9Z" transform="translate(-130.383 -25.824)" fill="#33dce1"/>
    </clipPath>
    <clipPath id="clip-path-6">
      <rect id="Rectangle_474121" data-name="Rectangle 474121" width="36.65" height="48.777" fill="#fff"/>
    </clipPath>
  </defs>
  <g id="img5" transform="translate(-1246.169 -5372.5)">
    <g id="Group_1191498" data-name="Group 1191498" transform="translate(1257.668 5386)" opacity="0.7">
      <g id="Group_1191497" data-name="Group 1191497" transform="translate(0 0)">
        <g id="Group_1191496" data-name="Group 1191496" clip-path="url(#clip-path)">
          <g id="Group_1191495" data-name="Group 1191495">
            <g id="Group_1191494" data-name="Group 1191494" clip-path="url(#clip-path-2)">
              <rect id="Rectangle_461210" data-name="Rectangle 461210" width="23.624" height="23.625" transform="translate(0 0)" fill="#fff"/>
            </g>
          </g>
        </g>
      </g>
    </g>
    <g id="Group_1191602" data-name="Group 1191602" transform="translate(1257.669 5386)">
      <g transform="matrix(1, 0, 0, 1, -11.5, -13.5)" filter="url(#Path_1036208)">
        <path id="Path_1036208-2" data-name="Path 1036208" d="M521.409,482.717a49,49,0,1,1-49-49,49,49,0,0,1,49,49" transform="translate(-411.91 -420.22)" fill="#fff"/>
      </g>
      <g id="Group_1191483" data-name="Group 1191483" transform="translate(13.732 13.725)" clip-path="url(#clip-path-3)">
        <rect id="Rectangle_461207" data-name="Rectangle 461207" width="77.884" height="73.255" transform="translate(-4.63 -0.001)" fill="url(#linear-gradient)"/>
      </g>
    </g>
    <g id="Group_1191603" data-name="Group 1191603" transform="translate(1257.668 5413.587)" opacity="0.5">
      <g id="Group_1191497-2" data-name="Group 1191497" transform="translate(0 0)">
        <g id="Group_1191496-2" data-name="Group 1191496" clip-path="url(#clip-path-4)">
          <g id="Group_1191495-2" data-name="Group 1191495">
            <g id="Group_1191494-2" data-name="Group 1191494" clip-path="url(#clip-path-5)">
              <rect id="Rectangle_461210-2" data-name="Rectangle 461210" width="12.719" height="12.719" transform="translate(0 0)" fill="#33dce1"/>
            </g>
          </g>
        </g>
      </g>
    </g>
    <g id="Group_1196630" data-name="Group 1196630" transform="translate(1287.343 5407.624)">
      <g id="Group_1196629" data-name="Group 1196629" clip-path="url(#clip-path-6)">
        <path id="Path_1037699" data-name="Path 1037699" d="M45.646,58.59l5.327-.006V94.355l-29.682,0V58.584l5.286,0a4.144,4.144,0,0,0,2.409.866H43.25a3.917,3.917,0,0,0,2.4-.862m1.723,6.132a.884.884,0,0,0,.96-.872.837.837,0,0,0-.769-.894l-22.7-.009a.859.859,0,0,0-.925.907.892.892,0,0,0,.967.863Zm.267,6.066c.578,0,.734-.694.685-1a.933.933,0,0,0-.947-.749l-14.636,0a.877.877,0,0,0-.956.891.832.832,0,0,0,.764.872ZM25,74a.921.921,0,0,0,1.368-.039l3.345-3.352a.865.865,0,0,0-1.043-1.374l-3,2.938a1.162,1.162,0,0,0-1.007-.466.926.926,0,0,0-.683.679,1.1,1.1,0,0,0,.413,1Zm16.372.3a.851.851,0,0,0,.864-.947c-.039-.518-.439-.791-1.03-.791l-8.51,0a.885.885,0,0,0-.907.928.9.9,0,0,0,.908.817ZM25.089,81.911a.933.933,0,0,0,1.356-.174l3.267-3.28a.873.873,0,1,0-1.24-1.227l-2.8,2.762c-.42-.322-.925-.584-1.258-.353a.863.863,0,0,0-.255,1.348Zm22.384-3.253A.88.88,0,1,0,47.4,76.9l-14.677,0a.872.872,0,0,0-.939.865.885.885,0,0,0,.932.9Zm-6.036,3.466a.812.812,0,0,0,.793-.926.841.841,0,0,0-.864-.793l-8.674,0a.888.888,0,0,0-.907.93.875.875,0,0,0,.909.814ZM24.874,89.582a1.089,1.089,0,0,0,.863.4,1.05,1.05,0,0,0,.709-.4l3.266-3.272a.873.873,0,1,0-1.239-1.227l-2.8,2.756c-.4-.306-.933-.579-1.341-.285a.86.86,0,0,0-.182,1.291Zm22.6-3.078a.852.852,0,0,0,.848-1,.9.9,0,0,0-.928-.771l-14.655,0a.9.9,0,0,0-.965.871.883.883,0,0,0,.937.9Zm-6.029,3.469a.8.8,0,0,0,.784-.921.76.76,0,0,0-.706-.75l-8.669-.029c-.58,0-1.016.229-1.07.8a.871.871,0,0,0,.905.914Z" transform="translate(-17.805 -49)" fill="#fff"/>
        <path id="Path_1037700" data-name="Path 1037700" d="M33.16,38.961l-3.858.011a5.326,5.326,0,0,0,.35-1.79l3.734.032a3.392,3.392,0,0,1,3.264,3.437l-.01,35.969a3.329,3.329,0,0,1-2.946,3.255H2.956A3.331,3.331,0,0,1,.01,76.619L0,40.649a3.394,3.394,0,0,1,3.263-3.437L7,37.179a5.2,5.2,0,0,0,.347,1.789l-4.1.018a1.6,1.6,0,0,0-1.477,1.5l0,36.118A1.685,1.685,0,0,0,3.353,78.2H33.295a1.682,1.682,0,0,0,1.585-1.591l.007-35.955a1.674,1.674,0,0,0-1.726-1.693" transform="translate(0 -31.097)" fill="#fff"/>
        <path id="Path_1037701" data-name="Path 1037701" d="M69.837,8.719l-13.824.01a2.658,2.658,0,0,1-2.732-2.345A.959.959,0,0,1,54.2,5.222l3.416,0a.89.89,0,0,0,.895-.9,4.368,4.368,0,0,1,8.735,0,.912.912,0,0,0,.891.912h3.421a.947.947,0,0,1,.916,1.162,2.612,2.612,0,0,1-2.638,2.329m-4.349-4.37a2.61,2.61,0,1,0-2.61,2.61,2.61,2.61,0,0,0,2.61-2.61" transform="translate(-44.554 0)" fill="#fff"/>
        <path id="Path_1037702" data-name="Path 1037702" d="M108.427,22.132a.871.871,0,1,1-.871-.871.871.871,0,0,1,.871.871" transform="translate(-89.232 -17.783)" fill="#fff"/>
      </g>
    </g>
  </g>
</svg>
