<svg xmlns="http://www.w3.org/2000/svg" xmlns:xlink="http://www.w3.org/1999/xlink" width="129" height="129" viewBox="0 0 129 129">
  <defs>
    <linearGradient id="linear-gradient" x1="0.5" x2="0.5" y2="1" gradientUnits="objectBoundingBox">
      <stop offset="0" stop-color="#33dce1"/>
      <stop offset="1" stop-color="#14585a"/>
    </linearGradient>
    <clipPath id="clip-path">
      <rect id="Rectangle_461211" data-name="Rectangle 461211" width="23.381" height="23.381" fill="#33dce1"/>
    </clipPath>
    <clipPath id="clip-path-2">
      <path id="Path_1036211" data-name="Path 1036211" d="M146.593,25.824v7.171h7.171v9.039h-7.171v7.171h-9.039V42.034h-7.171V32.995h7.171V25.824Z" transform="translate(-130.383 -25.824)" fill="#33dce1"/>
    </clipPath>
    <filter id="Path_1036208" x="0" y="0" width="129" height="129" filterUnits="userSpaceOnUse">
      <feOffset dx="5" dy="3" input="SourceAlpha"/>
      <feGaussianBlur stdDeviation="5.5" result="blur"/>
      <feFlood flood-color="#0d7275" flood-opacity="0.388"/>
      <feComposite operator="in" in2="blur"/>
      <feComposite in="SourceGraphic"/>
    </filter>
    <clipPath id="clip-path-3">
      <path id="Path_1036209" data-name="Path 1036209" d="M451.576,480.244a33.92,33.92,0,1,0,31.379-20.967,33.95,33.95,0,0,0-31.379,20.967" transform="translate(-448.982 -459.277)" fill="url(#linear-gradient)"/>
    </clipPath>
    <clipPath id="clip-path-4">
      <rect id="Rectangle_461211-2" data-name="Rectangle 461211" width="12.588" height="12.588" fill="#33dce1"/>
    </clipPath>
    <clipPath id="clip-path-5">
      <path id="Path_1036211-2" data-name="Path 1036211" d="M139.11,25.824v3.861h3.861v4.867H139.11v3.861h-4.866V34.551h-3.861V29.685h3.861V25.824Z" transform="translate(-130.383 -25.824)" fill="#33dce1"/>
    </clipPath>
    <clipPath id="clip-path-6">
      <rect id="Rectangle_474085" data-name="Rectangle 474085" width="44.532" height="44.469" fill="#fff"/>
    </clipPath>
  </defs>
  <g id="img17" transform="translate(-1246.169 -5372.5)">
    <g id="Group_1191498" data-name="Group 1191498" transform="translate(1257.668 5386)" opacity="0.7">
      <g id="Group_1191497" data-name="Group 1191497" transform="translate(0 0)">
        <g id="Group_1191496" data-name="Group 1191496" clip-path="url(#clip-path)">
          <g id="Group_1191495" data-name="Group 1191495">
            <g id="Group_1191494" data-name="Group 1191494" clip-path="url(#clip-path-2)">
              <rect id="Rectangle_461210" data-name="Rectangle 461210" width="23.381" height="23.381" transform="translate(0 0)" fill="#33dce1"/>
            </g>
          </g>
        </g>
      </g>
    </g>
    <g id="Group_1191602" data-name="Group 1191602" transform="translate(1257.669 5386)">
      <g transform="matrix(1, 0, 0, 1, -11.5, -13.5)" filter="url(#Path_1036208)">
        <path id="Path_1036208-2" data-name="Path 1036208" d="M519.409,481.717a48,48,0,1,1-48-48,48,48,0,0,1,48,48" transform="translate(-411.91 -420.22)" fill="#fff"/>
      </g>
      <g id="Group_1191483" data-name="Group 1191483" transform="translate(13.591 13.583)" clip-path="url(#clip-path-3)">
        <rect id="Rectangle_461207" data-name="Rectangle 461207" width="77.081" height="72.5" transform="translate(-4.582 -0.001)" fill="url(#linear-gradient)"/>
      </g>
    </g>
    <g id="Group_1191603" data-name="Group 1191603" transform="translate(1257.668 5412.982)" opacity="0.5">
      <g id="Group_1191497-2" data-name="Group 1191497" transform="translate(0 0)">
        <g id="Group_1191496-2" data-name="Group 1191496" clip-path="url(#clip-path-4)">
          <g id="Group_1191495-2" data-name="Group 1191495">
            <g id="Group_1191494-2" data-name="Group 1191494" clip-path="url(#clip-path-5)">
              <rect id="Rectangle_461210-2" data-name="Rectangle 461210" width="12.588" height="12.588" transform="translate(0 0)" fill="#33dce1"/>
            </g>
          </g>
        </g>
      </g>
    </g>
    <g id="Group_1196579" data-name="Group 1196579" transform="translate(1283.402 5407.381)">
      <g id="Group_1196578" data-name="Group 1196578" clip-path="url(#clip-path-6)">
        <path id="Path_1037553" data-name="Path 1037553" d="M115.046,238.1l-17.355,0,.008-4.033a9.488,9.488,0,0,1,2.41-6.222,8.184,8.184,0,0,1,12.515,0,9.49,9.49,0,0,1,2.411,6.223Z" transform="translate(-84.095 -193.634)" fill="#fff"/>
        <path id="Path_1037554" data-name="Path 1037554" d="M239.775,240.064l-12.126,0a12.9,12.9,0,0,0-.84-5.967,7.044,7.044,0,0,1,2.332-3.1,6.318,6.318,0,0,1,8.678.918,7.632,7.632,0,0,1,1.957,5.119Z" transform="translate(-195.245 -197.715)" fill="#fff"/>
        <path id="Path_1037555" data-name="Path 1037555" d="M250.721,164.817a4.063,4.063,0,1,1-4.063-4.063,4.063,4.063,0,0,1,4.063,4.063" transform="translate(-208.833 -138.382)" fill="#fff"/>
        <path id="Path_1037556" data-name="Path 1037556" d="M0,240.079l.016-3.165a7.51,7.51,0,0,1,1.953-4.981,6.325,6.325,0,0,1,8.757-.854,7.014,7.014,0,0,1,2.251,3.039,12.609,12.609,0,0,0-.827,5.954Z" transform="translate(0 -197.735)" fill="#fff"/>
        <path id="Path_1037557" data-name="Path 1037557" d="M27.221,164.815a4.062,4.062,0,1,1-4.062-4.062,4.062,4.062,0,0,1,4.062,4.062" transform="translate(-16.439 -138.381)" fill="#fff"/>
        <path id="Path_1037558" data-name="Path 1037558" d="M132.194,144.679a5.234,5.234,0,1,1-5.234-5.234,5.234,5.234,0,0,1,5.234,5.234" transform="translate(-104.786 -120.039)" fill="#fff"/>
        <path id="Path_1037559" data-name="Path 1037559" d="M119.671,7.784A7.784,7.784,0,1,1,111.887,0a7.784,7.784,0,0,1,7.784,7.784m-6.357,6.035a.781.781,0,0,0,.677-.8l0-3.085,2.9,0a.841.841,0,0,0,.89-.948l.005-2.518a.836.836,0,0,0-.881-.832l-2.913,0V2.57a.812.812,0,0,0-.843-.84h-2.523a.813.813,0,0,0-.843.84V5.644l-2.914-.009a.836.836,0,0,0-.881.833l.005,2.517a.839.839,0,0,0,.891.948l2.9.007v3.081a.784.784,0,0,0,.735.805Z" transform="translate(-89.615)" fill="#fff"/>
        <path id="Path_1037560" data-name="Path 1037560" d="M133.367,32.178a2.873,2.873,0,0,1-1.2.024l-.039-3.128a.743.743,0,0,0-.776-.738l-3.014,0,0-1.279,3-.009a.706.706,0,0,0,.766-.616l.057-3.228a2.39,2.39,0,0,1,1.184,0l.035,3.126a.733.733,0,0,0,.786.717l2.993.011,0,1.279-3.016,0a.738.738,0,0,0-.773.74Z" transform="translate(-110.479 -19.907)" fill="#fff"/>
      </g>
    </g>
  </g>
</svg>
